<svg width="20" height="19" viewBox="0 0 20 19" fill="none" xmlns="http://www.w3.org/2000/svg">
<path d="M1.70002 6.99998C1.70002 7.94231 1.86218 8.87564 2.18652 9.79998C2.51085 10.7243 2.99868 11.5795 3.65002 12.3655C3.77435 12.5103 3.83977 12.6763 3.84627 12.8635C3.8526 13.0506 3.78843 13.2116 3.65377 13.3462C3.51927 13.4807 3.35677 13.5381 3.16627 13.5182C2.97593 13.4984 2.8186 13.4161 2.69427 13.2712C1.91477 12.3467 1.33493 11.3541 0.954766 10.2932C0.574766 9.2324 0.384766 8.13465 0.384766 6.99998C0.384766 5.86531 0.574766 4.76756 0.954766 3.70673C1.33493 2.6459 1.91477 1.65323 2.69427 0.728729C2.8186 0.583895 2.97593 0.501562 3.16627 0.481728C3.35677 0.461895 3.51927 0.519229 3.65377 0.653729C3.78843 0.788395 3.8526 0.949312 3.84627 1.13648C3.83977 1.32365 3.77435 1.48964 3.65002 1.63448C2.99868 2.42048 2.51085 3.27564 2.18652 4.19998C1.86218 5.12431 1.70002 6.05765 1.70002 6.99998ZM5.00002 6.99998C5.00002 7.52181 5.08302 8.0439 5.24902 8.56623C5.41502 9.08873 5.68077 9.57623 6.04627 10.0287C6.15393 10.1737 6.20935 10.3356 6.21252 10.5145C6.21568 10.6933 6.15002 10.85 6.01552 10.9845C5.88085 11.1191 5.7241 11.1823 5.54527 11.174C5.36643 11.1656 5.21802 11.0891 5.10002 10.9442C4.63335 10.3634 4.28077 9.73356 4.04227 9.05473C3.80393 8.3759 3.68477 7.69098 3.68477 6.99998C3.68477 6.30898 3.80393 5.62406 4.04227 4.94523C4.28077 4.26639 4.63335 3.63656 5.10002 3.05573C5.21802 2.91089 5.36643 2.83431 5.54527 2.82598C5.7241 2.81764 5.88085 2.88081 6.01552 3.01548C6.15002 3.14998 6.2131 3.30831 6.20477 3.49048C6.19643 3.67248 6.13527 3.83589 6.02127 3.98073C5.67893 4.41656 5.4231 4.89314 5.25377 5.41048C5.0846 5.92781 5.00002 6.45765 5.00002 6.99998ZM7.72302 16.173L7.23452 17.6767C7.18068 17.8217 7.09127 17.9406 6.96627 18.0335C6.84127 18.1265 6.70127 18.173 6.54627 18.173C6.28977 18.173 6.09235 18.0759 5.95402 17.8817C5.81552 17.6874 5.78343 17.4671 5.85777 17.221L8.68277 8.74023C8.40326 8.53906 8.18435 8.28498 8.02602 7.97798C7.86768 7.67081 7.78852 7.34481 7.78852 6.99998C7.78852 6.38331 8.00293 5.86056 8.43177 5.43173C8.8606 5.0029 9.38335 4.78848 10 4.78848C10.6167 4.78848 11.1394 5.0029 11.5683 5.43173C11.9971 5.86056 12.2115 6.38331 12.2115 6.99998C12.2115 7.34481 12.1356 7.66756 11.9838 7.96823C11.8318 8.26889 11.6096 8.52623 11.3173 8.74023L14.1423 17.221C14.2166 17.4505 14.1871 17.6666 14.0538 17.8692C13.9204 18.0717 13.7256 18.173 13.4693 18.173C13.3141 18.173 13.1731 18.1291 13.0463 18.0412C12.9193 17.9534 12.8288 17.8319 12.775 17.6767L12.2923 16.173H7.72302ZM8.21927 14.673H11.7808L10 9.32673L8.21927 14.673ZM15 6.99998C15 6.49748 14.9154 5.98014 14.7463 5.44798C14.5769 4.91598 14.3128 4.42373 13.9538 3.97123C13.8461 3.82623 13.7907 3.66431 13.7875 3.48548C13.7843 3.30664 13.85 3.14998 13.9845 3.01548C14.1192 2.88081 14.2785 2.81764 14.4625 2.82598C14.6465 2.83431 14.7923 2.91089 14.9 3.05573C15.3563 3.63656 15.7012 4.26798 15.9345 4.94998C16.1678 5.63198 16.2948 6.31848 16.3153 7.00948C16.3153 7.70065 16.1977 8.38398 15.9625 9.05948C15.7272 9.73515 15.373 10.3634 14.9 10.9442C14.782 11.0891 14.6336 11.1656 14.4548 11.174C14.2759 11.1823 14.1192 11.1191 13.9845 10.9845C13.85 10.85 13.7869 10.6916 13.7953 10.5095C13.8036 10.3275 13.8648 10.1641 13.9788 10.0192C14.3211 9.5834 14.5769 9.10681 14.7463 8.58948C14.9154 8.07214 15 7.54231 15 6.99998ZM18.3 6.99998C18.3 6.05765 18.1378 5.12431 17.8135 4.19998C17.4892 3.27564 17.0013 2.42048 16.35 1.63448C16.2257 1.48964 16.1603 1.32365 16.1538 1.13648C16.1474 0.949312 16.2116 0.788395 16.3463 0.653729C16.4808 0.519229 16.6433 0.461895 16.8338 0.481728C17.0241 0.501562 17.1814 0.583895 17.3058 0.728729C18.0853 1.65323 18.6651 2.6459 19.0453 3.70673C19.4253 4.76756 19.6153 5.86531 19.6153 6.99998C19.6153 8.13465 19.4345 9.2324 19.073 10.2932C18.7115 11.3541 18.1275 12.3467 17.321 13.2712C17.1865 13.4161 17.0266 13.501 16.8413 13.526C16.6561 13.551 16.4911 13.4911 16.3463 13.3462C16.2116 13.2116 16.1474 13.0506 16.1538 12.8635C16.1603 12.6763 16.2257 12.5103 16.35 12.3655C17.0013 11.5795 17.4892 10.7243 17.8135 9.79998C18.1378 8.87564 18.3 7.94231 18.3 6.99998Z" fill="#52525B"/>
</svg>
