<svg width="18" height="18" viewBox="0 0 18 18" fill="none" xmlns="http://www.w3.org/2000/svg">
<path d="M5.1155 9C4.90267 9 4.72442 9.07183 4.58075 9.2155C4.43725 9.359 4.3655 9.53717 4.3655 9.75V13C4.3655 13.2128 4.43725 13.391 4.58075 13.5345C4.72442 13.6782 4.90267 13.75 5.1155 13.75C5.32817 13.75 5.50633 13.6782 5.65 13.5345C5.7935 13.391 5.86525 13.2128 5.86525 13V9.75C5.86525 9.53717 5.7935 9.359 5.65 9.2155C5.50633 9.07183 5.32817 9 5.1155 9ZM12.8845 4C12.6718 4 12.4937 4.07183 12.35 4.2155C12.2065 4.359 12.1348 4.53717 12.1348 4.75V13C12.1348 13.2128 12.2065 13.391 12.35 13.5345C12.4937 13.6782 12.6718 13.75 12.8845 13.75C13.0973 13.75 13.2756 13.6782 13.4193 13.5345C13.5628 13.391 13.6345 13.2128 13.6345 13V4.75C13.6345 4.53717 13.5628 4.359 13.4193 4.2155C13.2756 4.07183 13.0973 4 12.8845 4ZM9 11C8.78717 11 8.609 11.0718 8.4655 11.2155C8.32183 11.359 8.25 11.5372 8.25 11.75V13C8.25 13.2128 8.32183 13.391 8.4655 13.5345C8.609 13.6782 8.78717 13.75 9 13.75C9.21283 13.75 9.391 13.6782 9.5345 13.5345C9.67817 13.391 9.75 13.2128 9.75 13V11.75C9.75 11.5372 9.67817 11.359 9.5345 11.2155C9.391 11.0718 9.21283 11 9 11ZM2.30775 17.5C1.80258 17.5 1.375 17.325 1.025 16.975C0.675 16.625 0.5 16.1974 0.5 15.6923V2.30775C0.5 1.80258 0.675 1.375 1.025 1.025C1.375 0.675 1.80258 0.5 2.30775 0.5H15.6923C16.1974 0.5 16.625 0.675 16.975 1.025C17.325 1.375 17.5 1.80258 17.5 2.30775V15.6923C17.5 16.1974 17.325 16.625 16.975 16.975C16.625 17.325 16.1974 17.5 15.6923 17.5H2.30775ZM2.30775 16H15.6923C15.7692 16 15.8398 15.9679 15.9038 15.9038C15.9679 15.8398 16 15.7692 16 15.6923V2.30775C16 2.23075 15.9679 2.16025 15.9038 2.09625C15.8398 2.03208 15.7692 2 15.6923 2H2.30775C2.23075 2 2.16025 2.03208 2.09625 2.09625C2.03208 2.16025 2 2.23075 2 2.30775V15.6923C2 15.7692 2.03208 15.8398 2.09625 15.9038C2.16025 15.9679 2.23075 16 2.30775 16ZM9 8.75C9.21283 8.75 9.391 8.67817 9.5345 8.5345C9.67817 8.391 9.75 8.21283 9.75 8C9.75 7.78717 9.67817 7.609 9.5345 7.4655C9.391 7.32183 9.21283 7.25 9 7.25C8.78717 7.25 8.609 7.32183 8.4655 7.4655C8.32183 7.609 8.25 7.78717 8.25 8C8.25 8.21283 8.32183 8.391 8.4655 8.5345C8.609 8.67817 8.78717 8.75 9 8.75Z" fill="white"/>
</svg>
