<svg width="15" height="16" viewBox="0 0 15 16" fill="none" xmlns="http://www.w3.org/2000/svg">
<path d="M12.4038 15.5C12.1478 15.5 11.9331 15.4133 11.7598 15.24C11.5866 15.0668 11.5 14.8522 11.5 14.596V10.5C11.5 10.244 11.5866 10.0293 11.7598 9.856C11.9331 9.68283 12.1478 9.59625 12.4038 9.59625H14.096C14.3522 9.59625 14.5668 9.68283 14.74 9.856C14.9133 10.0293 15 10.244 15 10.5V14.596C15 14.8522 14.9133 15.0668 14.74 15.24C14.5668 15.4133 14.3522 15.5 14.096 15.5H12.4038ZM6.65375 15.5C6.39775 15.5 6.18308 15.4133 6.00975 15.24C5.83658 15.0668 5.75 14.8522 5.75 14.596V1.404C5.75 1.14783 5.83658 0.933167 6.00975 0.760001C6.18308 0.586667 6.39775 0.5 6.65375 0.5H8.34625C8.60225 0.5 8.81692 0.586667 8.99025 0.760001C9.16342 0.933167 9.25 1.14783 9.25 1.404V14.596C9.25 14.8522 9.16342 15.0668 8.99025 15.24C8.81692 15.4133 8.60225 15.5 8.34625 15.5H6.65375ZM0.904 15.5C0.647833 15.5 0.433167 15.4133 0.26 15.24C0.0866665 15.0668 0 14.8522 0 14.596V6.31225C0 6.05158 0.0866665 5.835 0.26 5.6625C0.433167 5.49017 0.647833 5.404 0.904 5.404H2.59625C2.85225 5.404 3.06692 5.49058 3.24025 5.66375C3.41342 5.83692 3.5 6.05158 3.5 6.30775V14.5915C3.5 14.8523 3.41342 15.0689 3.24025 15.2413C3.06692 15.4138 2.85225 15.5 2.59625 15.5H0.904Z" fill="#3F3F46"/>
</svg>
