<svg width="18" height="20" viewBox="0 0 18 20" fill="none" xmlns="http://www.w3.org/2000/svg">
<path d="M2.30775 19.5C1.80258 19.5 1.375 19.325 1.025 18.975C0.675 18.625 0.5 18.1974 0.5 17.6922V4.30773C0.5 3.80257 0.675 3.37498 1.025 3.02498C1.375 2.67498 1.80258 2.49998 2.30775 2.49998H3.69225V1.15374C3.69225 0.934569 3.76567 0.751568 3.9125 0.604735C4.05933 0.458068 4.24233 0.384735 4.4615 0.384735C4.68083 0.384735 4.86383 0.458068 5.0105 0.604735C5.15733 0.751568 5.23075 0.934569 5.23075 1.15374V2.49998H12.8077V1.13474C12.8077 0.921902 12.8795 0.743651 13.023 0.599985C13.1667 0.456485 13.3449 0.384735 13.5577 0.384735C13.7706 0.384735 13.9487 0.456485 14.0922 0.599985C14.2359 0.743651 14.3077 0.921902 14.3077 1.13474V2.49998H15.6923C16.1974 2.49998 16.625 2.67498 16.975 3.02498C17.325 3.37498 17.5 3.80257 17.5 4.30773V17.6922C17.5 18.1974 17.325 18.625 16.975 18.975C16.625 19.325 16.1974 19.5 15.6923 19.5H2.30775ZM2.30775 18H15.6923C15.7692 18 15.8398 17.9679 15.9038 17.9037C15.9679 17.8397 16 17.7692 16 17.6922V8.30773H2V17.6922C2 17.7692 2.03208 17.8397 2.09625 17.9037C2.16025 17.9679 2.23075 18 2.30775 18ZM2 6.80773H16V4.30773C16 4.23073 15.9679 4.16023 15.9038 4.09623C15.8398 4.03207 15.7692 3.99998 15.6923 3.99998H2.30775C2.23075 3.99998 2.16025 4.03207 2.09625 4.09623C2.03208 4.16023 2 4.23073 2 4.30773V6.80773Z" fill="#1D4ED8"/>
</svg>
