<svg width="18" height="18" viewBox="0 0 18 18" fill="none" xmlns="http://www.w3.org/2000/svg">
<path d="M2.30775 13.5C1.80908 13.5 1.38308 13.3234 1.02975 12.9702C0.676583 12.6169 0.5 12.1909 0.5 11.6922V6.30774C0.5 5.80907 0.676583 5.38307 1.02975 5.02974C1.38308 4.67657 1.80908 4.49999 2.30775 4.49999H15.6923C16.1909 4.49999 16.6169 4.67657 16.9703 5.02974C17.3234 5.38307 17.5 5.80907 17.5 6.30774V11.6922C17.5 12.1909 17.3234 12.6169 16.9703 12.9702C16.6169 13.3234 16.1909 13.5 15.6923 13.5H2.30775ZM2.30775 12H15.6923C15.7821 12 15.8558 11.9712 15.9135 11.9135C15.9712 11.8558 16 11.7821 16 11.6922V6.30774C16 6.21791 15.9712 6.14416 15.9135 6.08649C15.8558 6.02882 15.7821 5.99999 15.6923 5.99999H2.30775C2.21792 5.99999 2.14417 6.02882 2.0865 6.08649C2.02883 6.14416 2 6.21791 2 6.30774V11.6922C2 11.7821 2.02883 11.8558 2.0865 11.9135C2.14417 11.9712 2.21792 12 2.30775 12ZM1.225 2.30774C1.01867 2.30774 0.84625 2.23591 0.70775 2.09224C0.56925 1.94874 0.5 1.77057 0.5 1.55774C0.5 1.34491 0.571833 1.16674 0.7155 1.02324C0.859 0.879572 1.03717 0.807739 1.25 0.807739H16.775C16.9813 0.807739 17.1537 0.879572 17.2922 1.02324C17.4307 1.16674 17.5 1.34491 17.5 1.55774C17.5 1.77057 17.4282 1.94874 17.2845 2.09224C17.141 2.23591 16.9628 2.30774 16.75 2.30774H1.225ZM1.225 17.1922C1.01867 17.1922 0.84625 17.1204 0.70775 16.9767C0.56925 16.8332 0.5 16.6551 0.5 16.4422C0.5 16.2294 0.571833 16.0512 0.7155 15.9077C0.859 15.7641 1.03717 15.6922 1.25 15.6922H16.775C16.9813 15.6922 17.1537 15.7641 17.2922 15.9077C17.4307 16.0512 17.5 16.2294 17.5 16.4422C17.5 16.6551 17.4282 16.8332 17.2845 16.9767C17.141 17.1204 16.9628 17.1922 16.75 17.1922H1.225ZM2 5.99999H2.30775C2.21792 5.99999 2.14417 6.02882 2.0865 6.08649C2.02883 6.14416 2 6.21791 2 6.30774V11.6922C2 11.7821 2.02883 11.8558 2.0865 11.9135C2.14417 11.9712 2.21792 12 2.30775 12H2V5.99999Z" fill="#52525B"/>
</svg>
