<svg width="20" height="16" viewBox="0 0 20 16" fill="none" xmlns="http://www.w3.org/2000/svg">
<path d="M7.78075 11.5865H1.25C1.03717 11.5865 0.859 11.5147 0.7155 11.3712C0.571833 11.2276 0.5 11.0493 0.5 10.8365C0.5 10.6237 0.571833 10.4455 0.7155 10.302C0.859 10.1583 1.03717 10.0865 1.25 10.0865H7.78075L5.473 7.77873C5.33467 7.6404 5.26383 7.46898 5.2605 7.26448C5.25733 7.05998 5.32817 6.88015 5.473 6.72498C5.62817 6.56982 5.80642 6.49223 6.00775 6.49223C6.20892 6.49223 6.38708 6.56982 6.54225 6.72498L10.0213 10.2037C10.1148 10.2974 10.1807 10.3962 10.2192 10.5C10.2577 10.6038 10.277 10.716 10.277 10.8365C10.277 10.957 10.2577 11.0692 10.2192 11.173C10.1807 11.2768 10.1148 11.3756 10.0213 11.4692L6.527 14.9635C6.37817 15.1122 6.20408 15.1855 6.00475 15.1835C5.80542 15.1817 5.62817 15.1032 5.473 14.948C5.32817 14.7928 5.25317 14.6172 5.248 14.4212C5.243 14.2251 5.318 14.0494 5.473 13.8942L7.78075 11.5865ZM12.2193 5.90374L14.527 8.21148C14.6653 8.34998 14.7362 8.52148 14.7395 8.72599C14.7427 8.93048 14.6718 9.11032 14.527 9.26548C14.3718 9.42048 14.1936 9.49798 13.9923 9.49798C13.7911 9.49798 13.6129 9.42048 13.4578 9.26548L9.97875 5.78649C9.88525 5.69299 9.81925 5.59432 9.78075 5.49048C9.74225 5.38665 9.723 5.2744 9.723 5.15374C9.723 5.03324 9.74225 4.92107 9.78075 4.81723C9.81925 4.7134 9.88525 4.61473 9.97875 4.52123L13.473 1.02699C13.6218 0.878318 13.7959 0.804902 13.9952 0.806735C14.1946 0.808735 14.3718 0.887235 14.527 1.04223C14.6718 1.1974 14.7468 1.37307 14.752 1.56924C14.757 1.7654 14.682 1.94107 14.527 2.09623L12.2193 4.40398H18.75C18.9628 4.40398 19.141 4.47574 19.2845 4.61924C19.4282 4.7629 19.5 4.94107 19.5 5.15374C19.5 5.36657 19.4282 5.54482 19.2845 5.68848C19.141 5.83198 18.9628 5.90374 18.75 5.90374H12.2193Z" fill="#52525B"/>
</svg>
