<svg width="18" height="18" viewBox="0 0 18 18" fill="none" xmlns="http://www.w3.org/2000/svg">
<path d="M9.02876 17.5C6.65959 17.5 4.65067 16.6757 3.00201 15.027C1.35334 13.3782 0.529007 11.3692 0.529007 9C0.529007 7.027 1.13951 5.27317 2.36051 3.7385C3.58167 2.20384 5.20826 1.21475 7.24026 0.771252C7.45059 0.718585 7.63584 0.72367 7.79601 0.786503C7.95634 0.849337 8.08651 0.942919 8.18651 1.06725C8.28651 1.19175 8.34551 1.34275 8.36351 1.52025C8.38134 1.69775 8.33967 1.875 8.23851 2.052C8.03201 2.42767 7.87876 2.81792 7.77876 3.22275C7.67876 3.62759 7.62876 4.05334 7.62876 4.5C7.62876 6.13884 8.20242 7.53192 9.34976 8.67925C10.4969 9.82642 11.8899 10.4 13.5288 10.4C14.0199 10.4 14.4892 10.3378 14.9365 10.2135C15.384 10.0892 15.7757 9.94492 16.1115 9.78075C16.2757 9.70909 16.4359 9.68375 16.5923 9.70475C16.7488 9.72592 16.8823 9.77817 16.9928 9.8615C17.1156 9.94484 17.2068 10.0587 17.2663 10.203C17.3259 10.3472 17.3327 10.5167 17.2865 10.7115C16.9313 12.6782 15.9746 14.3013 14.4163 15.5808C12.8579 16.8603 11.0621 17.5 9.02876 17.5ZM9.02876 16C10.4954 16 11.8121 15.5958 12.9788 14.7875C14.1454 13.9792 14.9954 12.925 15.5288 11.625C15.1954 11.7083 14.8621 11.775 14.5288 11.825C14.1954 11.875 13.8621 11.9 13.5288 11.9C11.4788 11.9 9.73292 11.1792 8.29126 9.7375C6.84959 8.29584 6.12876 6.55 6.12876 4.5C6.12876 4.16667 6.15376 3.83334 6.20376 3.5C6.25376 3.16667 6.32042 2.83334 6.40376 2.5C5.10376 3.03334 4.04959 3.88334 3.24126 5.05C2.43292 6.21667 2.02876 7.53334 2.02876 9C2.02876 10.9333 2.71209 12.5833 4.07876 13.95C5.44542 15.3167 7.09542 16 9.02876 16Z" fill="#3F3F46"/>
</svg>
