<svg width="18" height="18" viewBox="0 0 18 18" fill="none" xmlns="http://www.w3.org/2000/svg">
<path d="M10.25 5.0915V1.40875C10.25 1.14775 10.3369 0.931083 10.5107 0.758749C10.6846 0.586249 10.8999 0.5 11.1568 0.5H16.5972C16.8542 0.5 17.0689 0.586249 17.2413 0.758749C17.4138 0.931083 17.5 1.14775 17.5 1.40875V5.0915C17.5 5.35233 17.4131 5.56892 17.2393 5.74125C17.0654 5.91375 16.8501 6 16.5933 6H11.1528C10.8958 6 10.6811 5.91375 10.5087 5.74125C10.3363 5.56892 10.25 5.35233 10.25 5.0915ZM0.5 8.6V1.39975C0.5 1.14475 0.586916 0.931083 0.76075 0.758749C0.934583 0.586249 1.14992 0.5 1.40675 0.5H6.84725C7.10425 0.5 7.31892 0.586249 7.49125 0.758749C7.66375 0.931249 7.75 1.145 7.75 1.4V8.60025C7.75 8.85525 7.66308 9.06892 7.48925 9.24125C7.31542 9.41375 7.10008 9.5 6.84325 9.5H1.40275C1.14575 9.5 0.931084 9.41375 0.75875 9.24125C0.58625 9.06875 0.5 8.855 0.5 8.6ZM10.25 16.6V9.39975C10.25 9.14475 10.3369 8.93108 10.5107 8.75875C10.6846 8.58625 10.8999 8.5 11.1568 8.5H16.5972C16.8542 8.5 17.0689 8.58625 17.2413 8.75875C17.4138 8.93125 17.5 9.145 17.5 9.4V16.6003C17.5 16.8552 17.4131 17.0689 17.2393 17.2413C17.0654 17.4138 16.8501 17.5 16.5933 17.5H11.1528C10.8958 17.5 10.6811 17.4138 10.5087 17.2413C10.3363 17.0688 10.25 16.855 10.25 16.6ZM0.5 16.5913V12.9085C0.5 12.6477 0.586916 12.4311 0.76075 12.2587C0.934583 12.0863 1.14992 12 1.40675 12H6.84725C7.10425 12 7.31892 12.0863 7.49125 12.2587C7.66375 12.4311 7.75 12.6477 7.75 12.9085V16.5913C7.75 16.8523 7.66308 17.0689 7.48925 17.2413C7.31542 17.4138 7.10008 17.5 6.84325 17.5H1.40275C1.14575 17.5 0.931084 17.4138 0.75875 17.2413C0.58625 17.0689 0.5 16.8523 0.5 16.5913ZM2 8H6.25V2H2V8ZM11.75 16H16V10H11.75V16ZM11.75 4.5H16V2H11.75V4.5ZM2 16H6.25V13.5H2V16Z" fill="#52525B"/>
</svg>
