<svg width="19" height="19" viewBox="0 0 19 19" fill="none" xmlns="http://www.w3.org/2000/svg">
<path d="M5.877 18.5H2C1.58467 18.5 1.23083 18.3538 0.9385 18.0615C0.646167 17.7692 0.5 17.4153 0.5 17V13.123C1.18467 13.0397 1.7725 12.7551 2.2635 12.2692C2.7545 11.7832 3 11.1935 3 10.5C3 9.80649 2.7545 9.21674 2.2635 8.73074C1.7725 8.24491 1.18467 7.96032 0.5 7.87699V3.99999C0.5 3.58466 0.646167 3.23082 0.9385 2.93849C1.23083 2.64616 1.58467 2.49999 2 2.49999H6C6.08983 1.86416 6.36833 1.33982 6.8355 0.92699C7.30283 0.514156 7.85767 0.307739 8.5 0.307739C9.14233 0.307739 9.69717 0.514156 10.1645 0.92699C10.6317 1.33982 10.9102 1.86416 11 2.49999H15C15.4153 2.49999 15.7692 2.64616 16.0615 2.93849C16.3538 3.23082 16.5 3.58466 16.5 3.99999V7.99999C17.1358 8.08982 17.6602 8.36832 18.073 8.83549C18.4858 9.30282 18.6923 9.85766 18.6923 10.5C18.6923 11.1423 18.4858 11.6972 18.073 12.1645C17.6602 12.6317 17.1358 12.9102 16.5 13V17C16.5 17.4153 16.3538 17.7692 16.0615 18.0615C15.7692 18.3538 15.4153 18.5 15 18.5H11.123C11.0333 17.782 10.7404 17.1858 10.2443 16.7115C9.74809 16.2372 9.16667 16 8.5 16C7.83333 16 7.25192 16.2372 6.75575 16.7115C6.25958 17.1858 5.96667 17.782 5.877 18.5ZM2 17H4.7115C5.05383 16.118 5.59458 15.4808 6.33375 15.0885C7.07275 14.6962 7.79483 14.5 8.5 14.5C9.20517 14.5 9.92725 14.6962 10.6663 15.0885C11.4054 15.4808 11.9462 16.118 12.2885 17H15V11.5577H16.2308C16.5371 11.5192 16.7739 11.3955 16.9413 11.1865C17.1086 10.9775 17.1923 10.7487 17.1923 10.5C17.1923 10.2513 17.1086 10.0225 16.9413 9.81349C16.7739 9.60449 16.5371 9.48074 16.2308 9.44224H15V3.99999H9.55775V2.76924C9.51925 2.46291 9.3955 2.22607 9.1865 2.05874C8.9775 1.89141 8.74867 1.80774 8.5 1.80774C8.25133 1.80774 8.0225 1.89141 7.8135 2.05874C7.6045 2.22607 7.48075 2.46291 7.44225 2.76924V3.99999H2V6.73849C2.759 7.05266 3.36542 7.55166 3.81925 8.23549C4.27308 8.91949 4.5 9.67432 4.5 10.5C4.5 11.3153 4.27308 12.065 3.81925 12.749C3.36542 13.433 2.759 13.9372 2 14.2615V17Z" fill="#3F3F46"/>
</svg>
