<svg width="16" height="18" viewBox="0 0 16 18" fill="none" xmlns="http://www.w3.org/2000/svg">
<path d="M8 18C5.92183 18 4.15233 17.2823 2.6915 15.847C1.2305 14.4117 0.5 12.6643 0.5 10.605C0.5 9.62218 0.694584 8.68209 1.08375 7.78476C1.47275 6.88726 2.01025 6.09109 2.69625 5.39626L8 0.192261L13.3038 5.39626C13.9898 6.09109 14.5273 6.88734 14.9163 7.78501C15.3054 8.68268 15.5 9.62334 15.5 10.607C15.5 12.6677 14.7695 14.415 13.3085 15.849C11.8477 17.283 10.0782 18 8 18ZM8 16.5C9.66667 16.5 11.0833 15.9308 12.25 14.7923C13.4167 13.6538 14 12.2588 14 10.6075C14 9.82334 13.85 9.07684 13.55 8.36801C13.25 7.65901 12.8167 7.03759 12.25 6.50376L8 2.30001L3.75 6.50376C3.18333 7.03759 2.75 7.65901 2.45 8.36801C2.15 9.07684 2 9.82334 2 10.6075C2 12.2588 2.58333 13.6538 3.75 14.7923C4.91667 15.9308 6.33333 16.5 8 16.5Z" fill="#18181B"/>
</svg>
