<svg width="18" height="18" viewBox="0 0 18 18" fill="none" xmlns="http://www.w3.org/2000/svg">
<path d="M13.048 11.502V6.498C13.048 6.29033 12.956 6.14808 12.772 6.07125C12.588 5.99425 12.4223 6.0295 12.275 6.177L10.0845 8.36725C9.90383 8.54808 9.8135 8.759 9.8135 9C9.8135 9.241 9.90383 9.45192 10.0845 9.63275L12.275 11.823C12.4223 11.9705 12.588 12.0057 12.772 11.9288C12.956 11.8519 13.048 11.7097 13.048 11.502ZM2.30775 17.5C1.80908 17.5 1.38308 17.3234 1.02975 16.9703C0.676583 16.6169 0.5 16.1909 0.5 15.6923V2.30775C0.5 1.80908 0.676583 1.38308 1.02975 1.02975C1.38308 0.676583 1.80908 0.5 2.30775 0.5H15.6923C16.1909 0.5 16.6169 0.676583 16.9703 1.02975C17.3234 1.38308 17.5 1.80908 17.5 2.30775V15.6923C17.5 16.1909 17.3234 16.6169 16.9703 16.9703C16.6169 17.3234 16.1909 17.5 15.6923 17.5H2.30775ZM5 16V2H2.30775C2.23075 2 2.16025 2.03208 2.09625 2.09625C2.03208 2.16025 2 2.23075 2 2.30775V15.6923C2 15.7692 2.03208 15.8398 2.09625 15.9038C2.16025 15.9679 2.23075 16 2.30775 16H5ZM6.5 16H15.6923C15.7692 16 15.8398 15.9679 15.9038 15.9038C15.9679 15.8398 16 15.7692 16 15.6923V2.30775C16 2.23075 15.9679 2.16025 15.9038 2.09625C15.8398 2.03208 15.7692 2 15.6923 2H6.5V16Z" fill="#3F3F46"/>
</svg>
