<svg width="244" height="66" viewBox="0 0 244 66" fill="none" xmlns="http://www.w3.org/2000/svg">
<path d="M0 8C0 3.58172 3.58172 0 8 0H236C240.418 0 244 3.58172 244 8V58C244 62.4183 240.418 66 236 66H8C3.58173 66 0 62.4183 0 58V8Z" fill="#F0FDF4"/>
<mask id="mask0_3285_324" style="mask-type:alpha" maskUnits="userSpaceOnUse" x="16" y="21" width="24" height="24">
<rect x="16" y="21" width="24" height="24" fill="#D9D9D9"/>
</mask>
<g mask="url(#mask0_3285_324)">
<path d="M36.6923 29.5C37.1679 29.5 37.5881 29.6824 37.9527 30.0472C38.3176 30.4119 38.5 30.8321 38.5 31.3077V32.923C38.5 33.028 38.4865 33.1405 38.4595 33.2605C38.4327 33.3803 38.4026 33.4922 38.3693 33.5962L35.5033 40.3587C35.3601 40.6786 35.1199 40.9487 34.7828 41.1692C34.4456 41.3897 34.0938 41.5 33.7273 41.5H23.2115V29.5L29.0288 23.7327C29.2276 23.5341 29.4578 23.4155 29.7193 23.377C29.9808 23.3385 30.2313 23.3833 30.471 23.5115C30.7108 23.6398 30.8865 23.8219 30.998 24.0577C31.1095 24.2936 31.1333 24.5378 31.0693 24.7905L29.9923 29.5H36.6923ZM24.7115 30.1385V40H33.7308C33.8013 40 33.8733 39.9807 33.947 39.9422C34.0208 39.9037 34.077 39.8397 34.1155 39.75L37 33V31.3077C37 31.2179 36.9712 31.1442 36.9135 31.0865C36.8558 31.0288 36.7821 31 36.6923 31H28.0963L29.35 25.5192L24.7115 30.1385ZM20.3077 41.5C19.8106 41.5 19.385 41.323 19.031 40.969C18.677 40.615 18.5 40.1894 18.5 39.6922V31.3077C18.5 30.8106 18.677 30.385 19.031 30.031C19.385 29.677 19.8106 29.5 20.3077 29.5H23.2115V31H20.3077C20.2179 31 20.1442 31.0288 20.0865 31.0865C20.0288 31.1442 20 31.2179 20 31.3077V39.6922C20 39.7821 20.0288 39.8558 20.0865 39.9135C20.1442 39.9712 20.2179 40 20.3077 40H23.2115V41.5H20.3077Z" fill="#18181B"/>
</g>
<path d="M53.232 23V13.13H59.392V14.082H54.394V17.54H59.084V18.492H54.394V23H53.232ZM63.3679 23.126C62.7426 23.126 62.1966 22.9813 61.7299 22.692C61.2632 22.3933 60.8992 21.9733 60.6379 21.432C60.3859 20.8907 60.2599 20.242 60.2599 19.486C60.2599 18.7207 60.3859 18.0673 60.6379 17.526C60.8992 16.9847 61.2632 16.5693 61.7299 16.28C62.1966 15.9907 62.7426 15.846 63.3679 15.846C64.0026 15.846 64.5486 16.0093 65.0059 16.336C65.4726 16.6533 65.7806 17.0873 65.9299 17.638H65.7619L65.9159 15.972H67.0079C66.9799 16.2427 66.9519 16.518 66.9239 16.798C66.9052 17.0687 66.8959 17.3347 66.8959 17.596V23H65.7619V21.348H65.9159C65.7666 21.8987 65.4586 22.3327 64.9919 22.65C64.5252 22.9673 63.9839 23.126 63.3679 23.126ZM63.5919 22.202C64.2639 22.202 64.7959 21.9733 65.1879 21.516C65.5799 21.0493 65.7759 20.3727 65.7759 19.486C65.7759 18.59 65.5799 17.9133 65.1879 17.456C64.7959 16.9893 64.2639 16.756 63.5919 16.756C62.9292 16.756 62.3972 16.9893 61.9959 17.456C61.6039 17.9133 61.4079 18.59 61.4079 19.486C61.4079 20.3727 61.6039 21.0493 61.9959 21.516C62.3972 21.9733 62.9292 22.202 63.5919 22.202ZM71.0921 23L68.0821 15.972H69.3141L71.8341 22.16H71.4561L74.0041 15.972H75.1801L72.1701 23H71.0921ZM79.2459 23.126C78.5739 23.126 77.9859 22.9813 77.4819 22.692C76.9872 22.3933 76.6045 21.9733 76.3339 21.432C76.0632 20.8813 75.9279 20.2327 75.9279 19.486C75.9279 18.73 76.0632 18.0813 76.3339 17.54C76.6045 16.9987 76.9872 16.5833 77.4819 16.294C77.9859 15.9953 78.5739 15.846 79.2459 15.846C79.9272 15.846 80.5152 15.9953 81.0099 16.294C81.5139 16.5833 81.9012 16.9987 82.1719 17.54C82.4519 18.0813 82.5919 18.73 82.5919 19.486C82.5919 20.2327 82.4519 20.8813 82.1719 21.432C81.9012 21.9733 81.5139 22.3933 81.0099 22.692C80.5152 22.9813 79.9272 23.126 79.2459 23.126ZM79.2459 22.202C79.9179 22.202 80.4499 21.9733 80.8419 21.516C81.2339 21.0493 81.4299 20.3727 81.4299 19.486C81.4299 18.59 81.2292 17.9133 80.8279 17.456C80.4359 16.9893 79.9085 16.756 79.2459 16.756C78.5832 16.756 78.0559 16.9893 77.6639 17.456C77.2719 17.9133 77.0759 18.59 77.0759 19.486C77.0759 20.3727 77.2719 21.0493 77.6639 21.516C78.0559 21.9733 78.5832 22.202 79.2459 22.202ZM84.3319 23V17.666C84.3319 17.386 84.3226 17.1013 84.3039 16.812C84.2946 16.5227 84.2759 16.2427 84.2479 15.972H85.3399L85.4799 17.68L85.2839 17.694C85.3772 17.274 85.5406 16.9287 85.7739 16.658C86.0072 16.3873 86.2826 16.1867 86.5999 16.056C86.9172 15.916 87.2486 15.846 87.5939 15.846C87.7339 15.846 87.8552 15.8507 87.9579 15.86C88.0699 15.8693 88.1726 15.8927 88.2659 15.93L88.2519 16.938C88.1119 16.8913 87.9812 16.8633 87.8599 16.854C87.7479 16.8353 87.6172 16.826 87.4679 16.826C87.0572 16.826 86.6979 16.924 86.3899 17.12C86.0912 17.316 85.8626 17.568 85.7039 17.876C85.5546 18.184 85.4799 18.5107 85.4799 18.856V23H84.3319ZM89.4458 23V15.972H90.5798V23H89.4458ZM89.3058 14.376V13.102H90.7058V14.376H89.3058Z" fill="#18181B"/>
<path d="M58.1 52.2C57.4867 52.2 56.8733 52.1333 56.26 52C55.66 51.8667 55.0933 51.68 54.56 51.44C54.04 51.2 53.5933 50.9133 53.22 50.58L54.06 48.64C54.6867 49.1067 55.3267 49.46 55.98 49.7C56.6467 49.9267 57.34 50.04 58.06 50.04C58.9267 50.04 59.6 49.8267 60.08 49.4C60.5733 48.96 60.82 48.3733 60.82 47.64C60.82 46.8933 60.5867 46.2933 60.12 45.84C59.6533 45.3733 59.0133 45.14 58.2 45.14C57.6267 45.14 57.1 45.2533 56.62 45.48C56.1533 45.6933 55.7333 46.0267 55.36 46.48H53.66V37.9H62.42V40.02H56.1V44.5H55.48C55.8267 44.0333 56.2867 43.6733 56.86 43.42C57.4467 43.1667 58.1 43.04 58.82 43.04C59.7267 43.04 60.5133 43.2267 61.18 43.6C61.8467 43.9733 62.3667 44.5 62.74 45.18C63.1133 45.8467 63.3 46.6333 63.3 47.54C63.3 48.46 63.0867 49.2733 62.66 49.98C62.2467 50.6733 61.6467 51.22 60.86 51.62C60.0867 52.0067 59.1667 52.2 58.1 52.2ZM65.5522 52V50.1L70.2322 45.22C70.8189 44.6067 71.2522 44.04 71.5322 43.52C71.8122 43 71.9522 42.4667 71.9522 41.92C71.9522 41.24 71.7389 40.7267 71.3122 40.38C70.8855 40.0333 70.2655 39.86 69.4522 39.86C68.7989 39.86 68.1722 39.98 67.5722 40.22C66.9722 40.4467 66.3855 40.8067 65.8122 41.3L64.9722 39.38C65.5455 38.8733 66.2522 38.4667 67.0922 38.16C67.9455 37.8533 68.8389 37.7 69.7722 37.7C71.2922 37.7 72.4589 38.04 73.2722 38.72C74.0855 39.4 74.4922 40.3733 74.4922 41.64C74.4922 42.52 74.2855 43.36 73.8722 44.16C73.4589 44.9467 72.8189 45.7733 71.9522 46.64L68.0522 50.54V49.86H75.0522V52H65.5522ZM77.0644 52V49.22H79.8644V52H77.0644ZM87.4453 52.2C85.672 52.2 84.2986 51.5867 83.3253 50.36C82.3653 49.1333 81.8853 47.4133 81.8853 45.2C81.8853 43.6 82.132 42.2467 82.6253 41.14C83.1186 40.02 83.8186 39.1667 84.7253 38.58C85.6453 37.9933 86.7453 37.7 88.0253 37.7C88.7853 37.7 89.5386 37.84 90.2853 38.12C91.032 38.3867 91.672 38.7733 92.2053 39.28L91.3453 41.2C90.852 40.7467 90.3186 40.4133 89.7453 40.2C89.172 39.9733 88.592 39.86 88.0053 39.86C86.8053 39.86 85.892 40.2667 85.2653 41.08C84.6386 41.8933 84.3253 43.1067 84.3253 44.72V46.22H84.0853C84.192 45.54 84.4186 44.96 84.7653 44.48C85.112 43.9867 85.5586 43.6133 86.1053 43.36C86.652 43.0933 87.2586 42.96 87.9253 42.96C88.752 42.96 89.4853 43.1533 90.1253 43.54C90.7653 43.9267 91.2653 44.46 91.6253 45.14C91.9986 45.82 92.1853 46.6 92.1853 47.48C92.1853 48.3867 91.9786 49.2 91.5653 49.92C91.1653 50.6267 90.612 51.1867 89.9053 51.6C89.1986 52 88.3786 52.2 87.4453 52.2ZM87.3053 50.16C87.7986 50.16 88.232 50.0533 88.6053 49.84C88.9786 49.6267 89.2653 49.3267 89.4653 48.94C89.6786 48.54 89.7853 48.0867 89.7853 47.58C89.7853 47.06 89.6786 46.6067 89.4653 46.22C89.2653 45.8333 88.9786 45.5333 88.6053 45.32C88.232 45.0933 87.7986 44.98 87.3053 44.98C86.812 44.98 86.3786 45.0933 86.0053 45.32C85.632 45.5333 85.3386 45.8333 85.1253 46.22C84.912 46.6067 84.8053 47.06 84.8053 47.58C84.8053 48.0867 84.912 48.54 85.1253 48.94C85.3386 49.3267 85.632 49.6267 86.0053 49.84C86.3786 50.0533 86.812 50.16 87.3053 50.16ZM94.4975 52V37.9H97.0775V44.14H97.1175L103.258 37.9H106.378L99.0175 45.24L99.0375 44.12L106.858 52H103.638L97.1175 45.48H97.0775V52H94.4975Z" fill="#18181B"/>
</svg>
