<svg width="20" height="16" viewBox="0 0 20 16" fill="none" xmlns="http://www.w3.org/2000/svg">
<path d="M7.44225 15.5C7.02042 15.5 6.66175 15.3523 6.36625 15.0568C6.07075 14.7613 5.923 14.4026 5.923 13.9808C5.923 13.5589 6.07075 13.2002 6.36625 12.9047C6.66175 12.6093 7.02042 12.4615 7.44225 12.4615H17.9807C18.4026 12.4615 18.7613 12.6093 19.0568 12.9047C19.3523 13.2002 19.5 13.5589 19.5 13.9808C19.5 14.4026 19.3523 14.7613 19.0568 15.0568C18.7613 15.3523 18.4026 15.5 17.9807 15.5H7.44225ZM7.44225 9.51925C7.02042 9.51925 6.66175 9.3715 6.36625 9.076C6.07075 8.7805 5.923 8.42183 5.923 8C5.923 7.57817 6.07075 7.2195 6.36625 6.924C6.66175 6.6285 7.02042 6.48075 7.44225 6.48075H17.9807C18.4026 6.48075 18.7613 6.6285 19.0568 6.924C19.3523 7.2195 19.5 7.57817 19.5 8C19.5 8.42183 19.3523 8.7805 19.0568 9.076C18.7613 9.3715 18.4026 9.51925 17.9807 9.51925H7.44225ZM7.44225 3.5385C7.02042 3.5385 6.66175 3.39075 6.36625 3.09525C6.07075 2.79975 5.923 2.44108 5.923 2.01925C5.923 1.59742 6.07075 1.23875 6.36625 0.94325C6.66175 0.64775 7.02042 0.5 7.44225 0.5H17.9807C18.4026 0.5 18.7613 0.64775 19.0568 0.94325C19.3523 1.23875 19.5 1.59742 19.5 2.01925C19.5 2.44108 19.3523 2.79975 19.0568 3.09525C18.7613 3.39075 18.4026 3.5385 17.9807 3.5385H7.44225ZM2.01925 3.5385C1.59742 3.5385 1.23875 3.39075 0.94325 3.09525C0.64775 2.79975 0.5 2.44108 0.5 2.01925C0.5 1.59742 0.64775 1.23875 0.94325 0.94325C1.23875 0.64775 1.59742 0.5 2.01925 0.5C2.44108 0.5 2.79975 0.64775 3.09525 0.94325C3.39075 1.23875 3.5385 1.59742 3.5385 2.01925C3.5385 2.44108 3.39075 2.79975 3.09525 3.09525C2.79975 3.39075 2.44108 3.5385 2.01925 3.5385ZM2.01925 9.51925C1.59742 9.51925 1.23875 9.3715 0.94325 9.076C0.64775 8.7805 0.5 8.42183 0.5 8C0.5 7.57817 0.64775 7.2195 0.94325 6.924C1.23875 6.6285 1.59742 6.48075 2.01925 6.48075C2.44108 6.48075 2.79975 6.6285 3.09525 6.924C3.39075 7.2195 3.5385 7.57817 3.5385 8C3.5385 8.42183 3.39075 8.7805 3.09525 9.076C2.79975 9.3715 2.44108 9.51925 2.01925 9.51925ZM2.01925 15.5C1.59742 15.5 1.23875 15.3523 0.94325 15.0568C0.64775 14.7613 0.5 14.4026 0.5 13.9808C0.5 13.5589 0.64775 13.2002 0.94325 12.9047C1.23875 12.6093 1.59742 12.4615 2.01925 12.4615C2.44108 12.4615 2.79975 12.6093 3.09525 12.9047C3.39075 13.2002 3.5385 13.5589 3.5385 13.9808C3.5385 14.4026 3.39075 14.7613 3.09525 15.0568C2.79975 15.3523 2.44108 15.5 2.01925 15.5Z" fill="#18181B"/>
</svg>
