<svg width="16" height="19" viewBox="0 0 16 19" fill="none" xmlns="http://www.w3.org/2000/svg">
<path d="M8.00003 17.5135C9.95636 15.7622 11.4534 14.0823 12.4913 12.474C13.5291 10.8657 14.048 9.457 14.048 8.248C14.048 6.425 13.4689 4.92633 12.3105 3.752C11.1522 2.57767 9.71536 1.9905 8.00003 1.9905C6.28469 1.9905 4.84786 2.57767 3.68953 3.752C2.53119 4.92633 1.95203 6.425 1.95203 8.248C1.95203 9.457 2.47094 10.8657 3.50878 12.474C4.54661 14.0823 6.04369 15.7622 8.00003 17.5135ZM8.00003 18.9403C7.80519 18.9403 7.61036 18.9067 7.41553 18.8395C7.22053 18.7722 7.04419 18.668 6.88653 18.527C5.98919 17.7 5.14944 16.8483 4.36728 15.972C3.58528 15.0958 2.90553 14.2199 2.32803 13.3443C1.75036 12.4686 1.29328 11.6007 0.956776 10.7405C0.620276 9.88017 0.452026 9.04933 0.452026 8.248C0.452026 5.94033 1.19844 4.07208 2.69128 2.64325C4.18428 1.21442 5.95386 0.5 8.00003 0.5C10.0462 0.5 11.8158 1.21442 13.3088 2.64325C14.8016 4.07208 15.548 5.94033 15.548 8.248C15.548 9.04933 15.3798 9.8785 15.0433 10.7355C14.7068 11.5927 14.2514 12.4607 13.677 13.3395C13.1025 14.2183 12.4243 15.0942 11.6423 15.9672C10.8603 16.8404 10.0205 17.6904 9.12303 18.5173C8.96769 18.6583 8.79111 18.764 8.59328 18.8345C8.39561 18.905 8.19786 18.9403 8.00003 18.9403ZM8.00178 9.86525C8.49928 9.86525 8.92461 9.68808 9.27778 9.33375C9.63111 8.97942 9.80778 8.5535 9.80778 8.056C9.80778 7.5585 9.63061 7.13308 9.27628 6.77975C8.92194 6.42658 8.49594 6.25 7.99828 6.25C7.50078 6.25 7.07544 6.42717 6.72228 6.7815C6.36894 7.13583 6.19228 7.56183 6.19228 8.0595C6.19228 8.557 6.36944 8.98233 6.72378 9.3355C7.07811 9.68867 7.50411 9.86525 8.00178 9.86525Z" fill="#52525B"/>
</svg>
