<svg width="20" height="18" viewBox="0 0 20 18" fill="none" xmlns="http://www.w3.org/2000/svg">
<path d="M2.05775 17.75C1.55908 17.75 1.13308 17.5734 0.77975 17.2202C0.426583 16.8669 0.25 16.4409 0.25 15.9422V1.148C0.25 1.04416 0.295167 0.973082 0.3855 0.934749C0.476 0.896249 0.559667 0.915415 0.6365 0.992249L1.675 2.03075L3.00375 0.676999C3.09742 0.583332 3.2045 0.536499 3.325 0.536499C3.4455 0.536499 3.55258 0.583332 3.64625 0.676999L5 2.03075L6.35375 0.676999C6.44742 0.583332 6.5545 0.536499 6.675 0.536499C6.7955 0.536499 6.90258 0.583332 6.99625 0.676999L8.325 2.03075L9.67875 0.676999C9.77242 0.583332 9.8795 0.536499 10 0.536499C10.1205 0.536499 10.2276 0.583332 10.3212 0.676999L11.675 2.03075L13.0038 0.676999C13.0974 0.583332 13.2045 0.536499 13.325 0.536499C13.4455 0.536499 13.5526 0.583332 13.6462 0.676999L15 2.03075L16.3538 0.676999C16.4474 0.583332 16.5545 0.536499 16.675 0.536499C16.7955 0.536499 16.9026 0.583332 16.9963 0.676999L18.325 2.03075L19.3635 0.992249C19.4403 0.915415 19.524 0.896249 19.6145 0.934749C19.7048 0.973082 19.75 1.04416 19.75 1.148V15.9422C19.75 16.4409 19.5734 16.8669 19.2203 17.2202C18.8669 17.5734 18.4409 17.75 17.9423 17.75H2.05775ZM2.05775 16.25H9.25V9.75H1.75V15.9422C1.75 16.0321 1.77883 16.1058 1.8365 16.1635C1.89417 16.2212 1.96792 16.25 2.05775 16.25ZM10.75 16.25H17.9423C18.0321 16.25 18.1058 16.2212 18.1635 16.1635C18.2212 16.1058 18.25 16.0321 18.25 15.9422V13.75H10.75V16.25ZM10.75 12.25H18.25V9.75H10.75V12.25ZM1.75 8.25H18.25V4.65375H1.75V8.25Z" fill="#52525B"/>
</svg>
