<svg width="20" height="20" viewBox="0 0 20 20" fill="none" xmlns="http://www.w3.org/2000/svg">
<path d="M6.99999 7.30778V17.6923C6.99999 17.7821 7.02882 17.8559 7.08649 17.9135C7.14416 17.9712 7.21791 18 7.30774 18H14V14.9038C14 14.6461 14.0862 14.4311 14.2587 14.2588C14.4311 14.0863 14.6461 14 14.9037 14H18V7.30778C18 7.21795 17.9712 7.1442 17.9135 7.08653C17.8558 7.02887 17.7821 7.00003 17.6922 7.00003H7.30774C7.21791 7.00003 7.14416 7.02887 7.08649 7.08653C7.02882 7.1442 6.99999 7.21795 6.99999 7.30778ZM5.49999 17.6923V7.29228C5.49999 6.79362 5.67916 6.37028 6.03749 6.02228C6.39582 5.67412 6.82432 5.50003 7.32299 5.50003H17.6922C18.1909 5.50003 18.6169 5.67662 18.9702 6.02978C19.3234 6.38312 19.5 6.80912 19.5 7.30778V14.0403C19.5 14.2814 19.4532 14.5132 19.3595 14.7355C19.266 14.958 19.1372 15.1513 18.973 15.3153L15.3152 18.973C15.1512 19.1372 14.958 19.266 14.7355 19.3595C14.5132 19.4532 14.2814 19.5 14.0402 19.5H7.30774C6.80907 19.5 6.38307 19.3234 6.02974 18.9703C5.67657 18.6169 5.49999 18.1909 5.49999 17.6923ZM0.524989 4.42303C0.431489 3.92436 0.528656 3.47503 0.816489 3.07503C1.10416 2.67503 1.49741 2.42828 1.99624 2.33478L12.2307 0.525032C12.7192 0.431532 13.1609 0.531199 13.5557 0.824033C13.9506 1.11703 14.2051 1.50778 14.3192 1.99628L14.475 2.80003C14.5327 3.05003 14.4938 3.24936 14.3585 3.39803C14.2233 3.54686 14.0628 3.6347 13.877 3.66153C13.691 3.68853 13.5143 3.65553 13.347 3.56253C13.1798 3.46953 13.0642 3.29803 13 3.04803L12.825 2.21153C12.8122 2.14103 12.7737 2.08495 12.7095 2.04328C12.6455 2.00161 12.575 1.9872 12.498 2.00003L2.25974 3.81928C2.16991 3.83212 2.10257 3.87378 2.05774 3.94428C2.01291 4.01478 1.99682 4.09495 2.00949 4.18478L3.67299 13.6693C3.71016 13.8758 3.67299 14.0643 3.56149 14.2348C3.44999 14.4053 3.29107 14.5123 3.08474 14.5558C2.87191 14.5994 2.68116 14.5597 2.51249 14.4365C2.34399 14.3135 2.24116 14.1456 2.20399 13.9328L0.524989 4.42303Z" fill="#52525B"/>
</svg>
