<svg width="16" height="20" viewBox="0 0 16 20" fill="none" xmlns="http://www.w3.org/2000/svg">
<path d="M1.25 16.8845C1.0375 16.8845 0.859417 16.8127 0.71575 16.669C0.571917 16.5252 0.5 16.3469 0.5 16.1343C0.5 15.9218 0.571917 15.7437 0.71575 15.6C0.859417 15.4565 1.0375 15.3848 1.25 15.3848H2.30775V7.923C2.30775 6.57817 2.72283 5.38908 3.553 4.35575C4.383 3.32242 5.44867 2.6615 6.75 2.373V1.75C6.75 1.40283 6.87142 1.10767 7.11425 0.8645C7.35708 0.6215 7.65192 0.5 7.99875 0.5C8.34575 0.5 8.641 0.6215 8.8845 0.8645C9.12817 1.10767 9.25 1.40283 9.25 1.75V2.373C10.5513 2.6615 11.617 3.32242 12.447 4.35575C13.2772 5.38908 13.6923 6.57817 13.6923 7.923V15.3848H14.75C14.9625 15.3848 15.1406 15.4566 15.2843 15.6003C15.4281 15.7441 15.5 15.9223 15.5 16.135C15.5 16.3475 15.4281 16.5256 15.2843 16.6693C15.1406 16.8128 14.9625 16.8845 14.75 16.8845H1.25ZM7.99825 19.6923C7.50075 19.6923 7.07542 19.5153 6.72225 19.1613C6.36892 18.8073 6.19225 18.3817 6.19225 17.8845H9.80775C9.80775 18.3833 9.63058 18.8093 9.27625 19.1625C8.92192 19.5157 8.49592 19.6923 7.99825 19.6923ZM3.80775 15.3848H12.1923V7.923C12.1923 6.76533 11.783 5.77725 10.9645 4.95875C10.1458 4.14008 9.15767 3.73075 8 3.73075C6.84233 3.73075 5.85417 4.14008 5.0355 4.95875C4.217 5.77725 3.80775 6.76533 3.80775 7.923V15.3848Z" fill="#3F3F46"/>
</svg>
