<svg width="19" height="17" viewBox="0 0 19 17" fill="none" xmlns="http://www.w3.org/2000/svg">
<path d="M0.5 14.4038V13.0845C0.5 12.5948 0.633 12.1413 0.899 11.724C1.165 11.3067 1.5205 10.9858 1.9655 10.7615C2.95383 10.277 3.95092 9.91359 4.95675 9.67126C5.96258 9.42893 6.977 9.30776 8 9.30776C8.53333 9.30776 9.06317 9.34043 9.5895 9.40576C10.1157 9.47109 10.6435 9.57109 11.173 9.70576L9.92125 10.973C9.59275 10.9258 9.2725 10.8865 8.9605 10.855C8.6485 10.8235 8.32833 10.8078 8 10.8078C7.08833 10.8078 6.18475 10.917 5.28925 11.1355C4.39392 11.3542 3.51542 11.6757 2.65375 12.1C2.45258 12.209 2.29333 12.3497 2.176 12.522C2.05867 12.6945 2 12.882 2 13.0845V13.8078H7.923V15.3078H1.404C1.14783 15.3078 0.933167 15.2211 0.76 15.0478C0.586667 14.8746 0.5 14.6599 0.5 14.4038ZM10.1155 15.596V14.6058C10.1155 14.3619 10.1648 14.1295 10.2635 13.9085C10.3622 13.6875 10.4936 13.4949 10.6578 13.3308L15.5443 8.45376C15.6686 8.32943 15.8028 8.24193 15.947 8.19126C16.0912 8.14076 16.2353 8.11551 16.3795 8.11551C16.5367 8.11551 16.6888 8.14493 16.8358 8.20376C16.9827 8.26276 17.1163 8.35126 17.2365 8.46926L18.1615 9.40376C18.2692 9.52826 18.3525 9.66293 18.4115 9.80776C18.4705 9.95259 18.5 10.0974 18.5 10.2423C18.5 10.3871 18.4731 10.5345 18.4193 10.6845C18.3654 10.8345 18.2795 10.9717 18.1615 11.096L13.2845 15.973C13.1205 16.1372 12.928 16.266 12.707 16.3595C12.486 16.4532 12.2535 16.5 12.0095 16.5H11.0193C10.7631 16.5 10.5484 16.4133 10.3753 16.24C10.2021 16.0668 10.1155 15.8522 10.1155 15.596ZM11.3077 15.3078H12.2578L15.5038 12.046L15.0443 11.571L14.5788 11.102L11.3077 14.3578V15.3078ZM15.0443 11.571L14.5788 11.102L15.5038 12.046L15.0443 11.571ZM8 7.69226C7.0375 7.69226 6.21358 7.34959 5.52825 6.66426C4.84275 5.97876 4.5 5.15476 4.5 4.19226C4.5 3.22976 4.84275 2.40584 5.52825 1.72051C6.21358 1.03501 7.0375 0.692261 8 0.692261C8.9625 0.692261 9.78642 1.03501 10.4718 1.72051C11.1573 2.40584 11.5 3.22976 11.5 4.19226C11.5 5.15476 11.1573 5.97876 10.4718 6.66426C9.78642 7.34959 8.9625 7.69226 8 7.69226ZM8 6.19226C8.55 6.19226 9.02083 5.99643 9.4125 5.60476C9.80417 5.21309 10 4.74226 10 4.19226C10 3.64226 9.80417 3.17143 9.4125 2.77976C9.02083 2.38809 8.55 2.19226 8 2.19226C7.45 2.19226 6.97917 2.38809 6.5875 2.77976C6.19583 3.17143 6 3.64226 6 4.19226C6 4.74226 6.19583 5.21309 6.5875 5.60476C6.97917 5.99643 7.45 6.19226 8 6.19226Z" fill="#18181B"/>
</svg>
