<svg width="20" height="21" viewBox="0 0 20 21" fill="none" xmlns="http://www.w3.org/2000/svg">
<path d="M2.30775 20.5C1.80258 20.5 1.375 20.325 1.025 19.975C0.675 19.625 0.5 19.1974 0.5 18.6923V7.30777C0.5 6.87177 0.6285 6.48235 0.8855 6.13952C1.14267 5.79652 1.4725 5.5436 1.875 5.38076L12.7673 0.940515C12.9429 0.876349 13.1176 0.880515 13.2913 0.953015C13.4651 1.02535 13.584 1.14935 13.648 1.32502C13.7122 1.50068 13.708 1.67535 13.6355 1.84902C13.5632 2.02285 13.4392 2.14176 13.2635 2.20576L5.16525 5.50002H17.6923C18.1974 5.50002 18.625 5.67502 18.975 6.02502C19.325 6.37502 19.5 6.8026 19.5 7.30777V18.6923C19.5 19.1974 19.325 19.625 18.975 19.975C18.625 20.325 18.1974 20.5 17.6923 20.5H2.30775ZM2.30775 19H17.6923C17.7693 19 17.8398 18.9679 17.9038 18.9038C17.9679 18.8398 18 18.7693 18 18.6923V11.7693H2V18.6923C2 18.7693 2.03208 18.8398 2.09625 18.9038C2.16025 18.9679 2.23075 19 2.30775 19ZM5.923 17.6923C6.56533 17.6923 7.11058 17.4683 7.55875 17.0203C8.00675 16.5721 8.23075 16.0268 8.23075 15.3845C8.23075 14.7423 8.00675 14.1972 7.55875 13.749C7.11058 13.301 6.56533 13.077 5.923 13.077C5.28067 13.077 4.7355 13.301 4.2875 13.749C3.8395 14.1972 3.6155 14.7423 3.6155 15.3845C3.6155 16.0268 3.8395 16.5721 4.2875 17.0203C4.7355 17.4683 5.28067 17.6923 5.923 17.6923ZM2 10.2693H14.25V9.09626C14.25 8.88343 14.3218 8.70518 14.4655 8.56152C14.609 8.41802 14.7872 8.34626 15 8.34626C15.2128 8.34626 15.391 8.41802 15.5345 8.56152C15.6782 8.70518 15.75 8.88343 15.75 9.09626V10.2693H18V7.30777C18 7.23077 17.9679 7.16026 17.9038 7.09626C17.8398 7.0321 17.7693 7.00002 17.6923 7.00002H2.30775C2.23075 7.00002 2.16025 7.0321 2.09625 7.09626C2.03208 7.16026 2 7.23077 2 7.30777V10.2693Z" fill="#52525B"/>
</svg>
