<svg width="24" height="24" viewBox="0 0 24 24" fill="none" xmlns="http://www.w3.org/2000/svg">
<mask id="mask0_420_138054" style="mask-type:alpha" maskUnits="userSpaceOnUse" x="0" y="0" width="24" height="24">
<rect width="24" height="24" fill="#D9D9D9"/>
</mask>
<g mask="url(#mask0_420_138054)">
<path d="M12.0385 19.5C9.94462 19.5 8.1712 18.7736 6.7182 17.3207C5.26504 15.8679 4.53845 14.0948 4.53845 12.0015C4.53845 9.90817 5.26504 8.13458 6.7182 6.68075C8.1712 5.22692 9.94462 4.5 12.0385 4.5C13.2076 4.5 14.314 4.75992 15.3577 5.27975C16.4012 5.79975 17.2691 6.53342 17.9615 7.48075V5.25C17.9615 5.0375 18.0334 4.85942 18.1772 4.71575C18.321 4.57192 18.4992 4.5 18.7117 4.5C18.9244 4.5 19.1025 4.57192 19.246 4.71575C19.3896 4.85942 19.4615 5.0375 19.4615 5.25V9.7115C19.4615 9.96767 19.3749 10.1823 19.2017 10.3555C19.0284 10.5287 18.8137 10.6152 18.5577 10.6152H14.0962C13.8837 10.6152 13.7055 10.5434 13.5617 10.3997C13.418 10.2559 13.3462 10.0777 13.3462 9.865C13.3462 9.6525 13.418 9.47442 13.5617 9.33075C13.7055 9.18725 13.8837 9.1155 14.0962 9.1155H17.2962C16.7692 8.15 16.0384 7.38942 15.1037 6.83375C14.1692 6.27792 13.1475 6 12.0385 6C10.3718 6 8.95512 6.58333 7.78845 7.75C6.62179 8.91667 6.03845 10.3333 6.03845 12C6.03845 13.6667 6.62179 15.0833 7.78845 16.25C8.95512 17.4167 10.3718 18 12.0385 18C13.2006 18 14.2645 17.6948 15.2302 17.0845C16.1959 16.4743 16.9275 15.6602 17.425 14.6423C17.5198 14.4602 17.6592 14.333 17.8432 14.2605C18.0272 14.1882 18.2147 14.184 18.4057 14.248C18.6095 14.3122 18.7522 14.4455 18.8337 14.648C18.915 14.8507 18.9083 15.043 18.8135 15.225C18.1941 16.5198 17.28 17.556 16.071 18.3335C14.862 19.1112 13.5178 19.5 12.0385 19.5Z" fill="#3F3F46"/>
</g>
</svg>
