<svg width="18" height="18" viewBox="0 0 18 18" fill="none" xmlns="http://www.w3.org/2000/svg">
<path d="M6.51924 12.6152C4.81157 12.6152 3.36541 12.023 2.18074 10.8385C0.996241 9.65382 0.403992 8.20765 0.403992 6.49998C0.403992 4.79232 0.996241 3.34615 2.18074 2.16149C3.36541 0.976985 4.81157 0.384735 6.51924 0.384735C8.22691 0.384735 9.67307 0.976985 10.8577 2.16149C12.0422 3.34615 12.6345 4.79232 12.6345 6.49998C12.6345 7.21415 12.5147 7.89623 12.275 8.54624C12.0352 9.19623 11.7152 9.76157 11.3152 10.2422L17.0692 15.9962C17.2077 16.1346 17.2786 16.3086 17.2817 16.5182C17.2849 16.7279 17.2141 16.9052 17.0692 17.05C16.9244 17.1948 16.7487 17.2672 16.5422 17.2672C16.3359 17.2672 16.1603 17.1948 16.0155 17.05L10.2615 11.296C9.76149 11.7088 9.18649 12.0319 8.53649 12.2652C7.88649 12.4986 7.21407 12.6152 6.51924 12.6152ZM6.51924 11.1155C7.80774 11.1155 8.89907 10.6683 9.79324 9.77398C10.6876 8.87982 11.1347 7.78848 11.1347 6.49998C11.1347 5.21148 10.6876 4.12015 9.79324 3.22598C8.89907 2.33165 7.80774 1.88448 6.51924 1.88448C5.23074 1.88448 4.13941 2.33165 3.24524 3.22598C2.35091 4.12015 1.90374 5.21148 1.90374 6.49998C1.90374 7.78848 2.35091 8.87982 3.24524 9.77398C4.13941 10.6683 5.23074 11.1155 6.51924 11.1155Z" fill="#71717A"/>
</svg>
