<svg width="20" height="18" viewBox="0 0 20 18" fill="none" xmlns="http://www.w3.org/2000/svg">
<path d="M9.14625 13.6345L12.8635 11.2635C13.1378 11.0827 13.275 10.8282 13.275 10.5C13.275 10.1718 13.1378 9.91733 12.8635 9.7365L9.14625 7.3655C8.84492 7.168 8.53692 7.15292 8.22225 7.32025C7.90742 7.48758 7.75 7.752 7.75 8.1135V12.8865C7.75 13.248 7.90742 13.5124 8.22225 13.6798C8.53692 13.8471 8.84492 13.832 9.14625 13.6345ZM2.30775 17.5C1.80258 17.5 1.375 17.325 1.025 16.975C0.675 16.625 0.5 16.1974 0.5 15.6923V4.404C0.5 4.14617 0.58625 3.93108 0.75875 3.75875C0.931083 3.58625 1.14617 3.5 1.404 3.5H6.5V1.80775C6.5 1.30258 6.675 0.875 7.025 0.525C7.375 0.175 7.80258 0 8.30775 0H11.6923C12.1974 0 12.625 0.175 12.975 0.525C13.325 0.875 13.5 1.30258 13.5 1.80775V3.5H18.596C18.8538 3.5 19.0689 3.58625 19.2413 3.75875C19.4138 3.93108 19.5 4.14617 19.5 4.404V15.6923C19.5 16.1974 19.325 16.625 18.975 16.975C18.625 17.325 18.1974 17.5 17.6923 17.5H2.30775ZM2.30775 16H17.6923C17.7693 16 17.8398 15.9679 17.9038 15.9038C17.9679 15.8398 18 15.7692 18 15.6923V5H2V15.6923C2 15.7692 2.03208 15.8398 2.09625 15.9038C2.16025 15.9679 2.23075 16 2.30775 16ZM8 3.5H12V1.80775C12 1.73075 11.9679 1.66025 11.9038 1.59625C11.8398 1.53208 11.7692 1.5 11.6923 1.5H8.30775C8.23075 1.5 8.16025 1.53208 8.09625 1.59625C8.03208 1.66025 8 1.73075 8 1.80775V3.5Z" fill="#52525B"/>
</svg>
