<svg width="24" height="16" viewBox="0 0 24 16" fill="none" xmlns="http://www.w3.org/2000/svg">
<path d="M12.7385 1.45135C13.5396 1.45786 15.2103 1.46099 16.7903 1.45917C17.7535 1.45805 18.6882 1.4568 19.3821 1.45526C19.385 1.45525 19.3879 1.45429 19.3909 1.45428L18.3157 3.2912L18.3147 3.29218L16.9895 5.56171L16.9885 5.56268L15.6565 7.84491H15.6555C15.3377 8.38977 15.0317 8.92372 14.7151 9.44843L14.3948 9.96991C13.9668 10.6504 13.5078 11.3092 13.0188 11.9465L13.0178 11.9484C12.9426 12.0473 12.8629 12.1425 12.7776 12.2394L12.5022 12.5422L12.4954 12.55C12.2273 12.8506 11.9304 13.1241 11.6125 13.3713C11.6065 13.3698 11.5998 13.3707 11.594 13.3683L11.5803 13.3625L11.5657 13.3576C11.5299 13.345 11.4538 13.299 11.3469 13.174C11.2958 13.1142 11.2458 13.0473 11.1985 12.9758L11.0627 12.7512L10.6301 11.9865L10.0618 10.9894L9.49536 10.007L9.07642 9.30389H9.07739C8.92037 9.03684 8.75302 8.77605 8.57739 8.52069L12.7385 1.45135Z" stroke="#52525B" stroke-width="1.3"/>
<path d="M5.83887 7.91907C6.35508 7.91907 6.73636 8.11897 7.08203 8.45715C7.45199 8.81913 7.75082 9.3069 8.09277 9.8634L8.09473 9.86731C8.23176 10.0867 8.36346 10.3133 8.5 10.549L8.50098 10.5509C8.68983 10.8739 8.87661 11.198 9.06152 11.5226C9.24749 11.849 9.43659 12.1814 9.62891 12.5197L9.63086 12.5216C9.77404 12.7713 9.91473 13.0229 10.0586 13.2794L10.0605 13.2823C10.1628 13.4623 10.3058 13.696 10.4883 13.9093C10.5259 13.9533 10.5676 13.9979 10.6123 14.0431C10.2019 14.2374 9.76683 14.3755 9.31836 14.4493L9.31152 14.4513C8.4095 14.6107 7.48376 14.5767 6.5957 14.3527C6.37849 14.2944 6.16483 14.2233 5.95605 14.1398C4.74497 13.6553 4.10182 12.8687 3.37207 11.8038H3.37109C3.16915 11.5081 2.98347 11.2015 2.81445 10.8859L2.81055 10.8781L2.80566 10.8702L1.12012 7.91907H5.83887Z" stroke="#52525B" stroke-width="1.3"/>
<path fill-rule="evenodd" clip-rule="evenodd" d="M17.131 8.65566L19.9929 3.7745C20.1519 3.52607 20.3651 3.31678 20.6166 3.16228C20.9743 2.9345 21.3887 2.8112 21.8129 2.80634C22.1871 2.81583 24 2.80634 24 2.80634L23.3276 3.94654C22.8999 4.66673 22.5815 5.38692 22.1538 6.10711C21.7749 6.74306 21.4256 7.49766 20.8637 7.99835C19.8396 8.89533 18.3986 8.65566 17.131 8.65566Z" fill="#52525B"/>
</svg>
