<svg width="16" height="16" viewBox="0 0 16 16" fill="none" xmlns="http://www.w3.org/2000/svg">
<path d="M1.404 15.5C1.14783 15.5 0.933167 15.4133 0.76 15.24C0.586667 15.0668 0.5 14.8522 0.5 14.596V5.7885C0.5 5.53233 0.586667 5.31767 0.76 5.1445C0.933167 4.97117 1.14783 4.8845 1.404 4.8845H3.09625C3.35225 4.8845 3.56692 4.97117 3.74025 5.1445C3.91342 5.31767 4 5.53233 4 5.7885V14.596C4 14.8522 3.91342 15.0668 3.74025 15.24C3.56692 15.4133 3.35225 15.5 3.09625 15.5H1.404ZM1.404 4C1.14783 4 0.933167 3.91342 0.76 3.74025C0.586667 3.56692 0.5 3.35225 0.5 3.09625V1.404C0.5 1.14783 0.586667 0.933167 0.76 0.760001C0.933167 0.586667 1.14783 0.5 1.404 0.5H3.09625C3.35225 0.5 3.56692 0.586667 3.74025 0.760001C3.91342 0.933167 4 1.14783 4 1.404V3.09625C4 3.35225 3.91342 3.56692 3.74025 3.74025C3.56692 3.91342 3.35225 4 3.09625 4H1.404ZM7.1635 15.5C6.90733 15.5 6.69267 15.4133 6.5195 15.24C6.34633 15.0668 6.25975 14.8522 6.25975 14.596L6.25 8.673C6.25 8.417 6.33658 8.20233 6.50975 8.029C6.68308 7.85583 6.89775 7.76925 7.15375 7.76925H8.84625C9.10225 7.76925 9.31692 7.85583 9.49025 8.029C9.66342 8.20233 9.75 8.417 9.75 8.673V14.596C9.75 14.8522 9.66342 15.0668 9.49025 15.24C9.31692 15.4133 9.10225 15.5 8.84625 15.5H7.1635ZM7.15375 6.8845C6.89775 6.8845 6.68308 6.79792 6.50975 6.62475C6.33658 6.45158 6.25 6.23692 6.25 5.98075V4.2885C6.25 4.03233 6.33658 3.81767 6.50975 3.6445C6.68308 3.47133 6.89775 3.38475 7.15375 3.38475H8.84625C9.10225 3.38475 9.31692 3.47133 9.49025 3.6445C9.66342 3.81767 9.75 4.03233 9.75 4.2885V5.98075C9.75 6.23692 9.66342 6.45158 9.49025 6.62475C9.31692 6.79792 9.10225 6.8845 8.84625 6.8845H7.15375ZM12.9038 15.5C12.6478 15.5 12.4331 15.4133 12.2598 15.24C12.0866 15.0668 12 14.8522 12 14.596V11.5673C12 11.3113 12.0866 11.0966 12.2598 10.9233C12.4331 10.7501 12.6478 10.6635 12.9038 10.6635H14.596C14.8522 10.6635 15.0668 10.7501 15.24 10.9233C15.4133 11.0966 15.5 11.3113 15.5 11.5673V14.596C15.5 14.8522 15.4133 15.0668 15.24 15.24C15.0668 15.4133 14.8522 15.5 14.596 15.5H12.9038ZM12.9038 9.77875C12.6478 9.77875 12.4331 9.69217 12.2598 9.519C12.0866 9.34567 12 9.131 12 8.875V7.18275C12 6.92658 12.0866 6.71192 12.2598 6.53875C12.4331 6.36542 12.6478 6.27875 12.9038 6.27875H14.596C14.8522 6.27875 15.0668 6.36542 15.24 6.53875C15.4133 6.71192 15.5 6.92658 15.5 7.18275V8.875C15.5 9.131 15.4133 9.34567 15.24 9.519C15.0668 9.69217 14.8522 9.77875 14.596 9.77875H12.9038Z" fill="#1D4ED8"/>
</svg>
