<svg width="20" height="18" viewBox="0 0 20 18" fill="none" xmlns="http://www.w3.org/2000/svg">
<path d="M3.07304 17.75C2.56804 17.75 2.14054 17.575 1.79054 17.225C1.44054 16.875 1.26554 16.4474 1.26554 15.9423V7.95375C0.862876 7.62308 0.560626 7.19392 0.358792 6.66625C0.156792 6.13875 0.152626 5.56925 0.346292 4.95775L1.35779 1.65375C1.49113 1.23325 1.71738 0.894167 2.03654 0.636501C2.35588 0.378834 2.73729 0.25 3.18079 0.25H16.8308C17.2745 0.25 17.6533 0.373084 17.9673 0.619251C18.2815 0.865417 18.5103 1.20392 18.6538 1.63475L19.6845 4.95775C19.8782 5.56925 19.874 6.13683 19.672 6.6605C19.4702 7.18433 19.168 7.62183 18.7653 7.973V15.9423C18.7653 16.4474 18.5903 16.875 18.2403 17.225C17.8903 17.575 17.4628 17.75 16.9578 17.75H3.07304ZM12.2155 7.25C12.7617 7.25 13.1723 7.083 13.4473 6.749C13.7223 6.415 13.8348 6.05633 13.7848 5.673L13.177 1.75H10.7653V5.7C10.7653 6.1205 10.9076 6.484 11.1923 6.7905C11.477 7.09683 11.818 7.25 12.2155 7.25ZM7.71554 7.25C8.17571 7.25 8.54904 7.09683 8.83554 6.7905C9.12221 6.484 9.26554 6.1205 9.26554 5.7V1.75H6.85379L6.24629 5.7115C6.19229 6.06667 6.30379 6.41192 6.58079 6.74725C6.85779 7.08242 7.23604 7.25 7.71554 7.25ZM3.26554 7.25C3.63604 7.25 3.95463 7.12083 4.22129 6.8625C4.48796 6.60417 4.65271 6.2795 4.71554 5.8885L5.30379 1.75H3.18079C3.07179 1.75 2.98529 1.774 2.92129 1.822C2.85713 1.87017 2.80904 1.94233 2.77704 2.0385L1.81529 5.29225C1.68329 5.72175 1.74554 6.15542 2.00204 6.59325C2.25838 7.03108 2.67954 7.25 3.26554 7.25ZM16.7655 7.25C17.3065 7.25 17.7206 7.0375 18.0078 6.6125C18.295 6.1875 18.3642 5.74742 18.2155 5.29225L17.2038 2.01925C17.1718 1.92308 17.1238 1.85417 17.0598 1.8125C16.9956 1.77083 16.909 1.75 16.8 1.75H14.727L15.3153 5.8885C15.3781 6.2795 15.5429 6.60417 15.8095 6.8625C16.0762 7.12083 16.3949 7.25 16.7655 7.25ZM3.07304 16.25H16.9578C17.0475 16.25 17.1211 16.2212 17.1788 16.1635C17.2366 16.1058 17.2655 16.0321 17.2655 15.9423V8.6615C17.1565 8.70133 17.0655 8.726 16.9923 8.7355C16.9193 8.74517 16.8437 8.75 16.7655 8.75C16.3155 8.75 15.9197 8.66858 15.578 8.50575C15.2364 8.34292 14.9052 8.082 14.5845 7.723C14.3039 8.03583 13.9719 8.28525 13.5885 8.47125C13.2052 8.65708 12.768 8.75 12.277 8.75C11.8527 8.75 11.4527 8.66183 11.077 8.4855C10.7014 8.30933 10.3475 8.05517 10.0155 7.723C9.70654 8.05517 9.35654 8.30933 8.96554 8.4855C8.57438 8.66183 8.17821 8.75 7.77704 8.75C7.32571 8.75 6.90263 8.66825 6.50779 8.50475C6.11296 8.34125 5.76554 8.08067 5.46554 7.723C5.04488 8.1435 4.65729 8.41983 4.30279 8.552C3.94846 8.684 3.60271 8.75 3.26554 8.75C3.18721 8.75 3.10638 8.74517 3.02304 8.7355C2.93971 8.726 2.85379 8.70133 2.76529 8.6615V15.9423C2.76529 16.0321 2.79421 16.1058 2.85204 16.1635C2.90971 16.2212 2.98338 16.25 3.07304 16.25Z" fill="#52525B"/>
</svg>
