<svg width="20" height="20" viewBox="0 0 20 20" fill="none" xmlns="http://www.w3.org/2000/svg">
<path d="M9.92502 19.5C8.61218 19.5 7.37794 19.2503 6.22227 18.751C5.06644 18.2517 4.06094 17.5744 3.20577 16.7193C2.3506 15.8641 1.67335 14.8586 1.17402 13.7028C0.674685 12.5471 0.425018 11.3128 0.425018 10C0.425018 8.68717 0.674685 7.45292 1.17402 6.29725C1.67335 5.14142 2.3506 4.13592 3.20577 3.28075C4.06094 2.42558 5.06644 1.74833 6.22227 1.249C7.37794 0.749667 8.61218 0.5 9.92502 0.5C11.2379 0.5 12.4721 0.749667 13.6278 1.249C14.7836 1.74833 15.7891 2.42558 16.6443 3.28075C17.4994 4.13592 18.1767 5.14142 18.676 6.29725C19.1754 7.45292 19.425 8.68717 19.425 10C19.425 11.3128 19.1754 12.5471 18.676 13.7028C18.1767 14.8586 17.4994 15.8641 16.6443 16.7193C15.7891 17.5744 14.7836 18.2517 13.6278 18.751C12.4721 19.2503 11.2379 19.5 9.92502 19.5ZM17 13.75H7.19427L5.69427 15.25H15.9693C16.1794 15.0192 16.3692 14.7813 16.5385 14.5365C16.7077 14.2917 16.8615 14.0295 17 13.75ZM17.8943 10.75H10.2193L8.71927 12.25H17.598C17.6699 12.0065 17.7304 11.7622 17.7798 11.5173C17.8291 11.2724 17.8673 11.0167 17.8943 10.75ZM17.598 7.75H13.2288L11.7193 9.25H17.8943C17.8673 8.98333 17.8291 8.72758 17.7798 8.48275C17.7304 8.23775 17.6699 7.9935 17.598 7.75ZM16.0865 4.90775L14.7443 6.25H17C16.8782 6 16.7407 5.76567 16.5875 5.547C16.4344 5.3285 16.2674 5.11542 16.0865 4.90775ZM3.76352 15.0922L15.0578 3.848C14.3616 3.2635 13.5792 2.80933 12.7105 2.4855C11.842 2.16183 10.9135 2 9.92502 2C7.69168 2 5.80002 2.775 4.25002 4.325C2.70002 5.875 1.92502 7.76667 1.92502 10C1.92502 10.9782 2.08685 11.8974 2.41052 12.7578C2.73435 13.6179 3.18535 14.3961 3.76352 15.0922ZM9.92502 18C10.7187 18 11.4741 17.8927 12.1913 17.678C12.9086 17.4632 13.5782 17.1538 14.2 16.75H5.65002C6.27185 17.1538 6.94144 17.4632 7.65877 17.678C8.37594 17.8927 9.13135 18 9.92502 18Z" fill="white"/>
</svg>
