<svg width="16" height="20" viewBox="0 0 16 20" fill="none" xmlns="http://www.w3.org/2000/svg">
<path d="M5.16327 10.6443C4.95061 10.6443 4.77244 10.5723 4.62877 10.4285C4.48527 10.2848 4.41353 10.1068 4.41353 9.89426V3.36351L2.09627 5.68076C1.96094 5.81926 1.79186 5.88851 1.58902 5.88851C1.38619 5.88851 1.20719 5.81676 1.05202 5.67326C0.896858 5.51676 0.819275 5.33785 0.819275 5.13651C0.819275 4.93535 0.896858 4.75718 1.05202 4.60201L4.52128 1.13276C4.61477 1.0391 4.71386 0.973097 4.81852 0.934764C4.92336 0.896264 5.03561 0.877014 5.15527 0.877014C5.27494 0.877014 5.38861 0.896348 5.49627 0.935014C5.60394 0.973848 5.70394 1.03976 5.79628 1.13276L9.29052 4.62701C9.43919 4.77568 9.51252 4.9481 9.51052 5.14426C9.50869 5.34043 9.43019 5.51676 9.27502 5.67326C9.11986 5.81676 8.94419 5.8911 8.74803 5.89626C8.55186 5.90126 8.37628 5.82626 8.22128 5.67126L5.91353 3.36351V9.90376C5.91353 10.1136 5.84161 10.2894 5.69777 10.4313C5.55394 10.5733 5.37577 10.6443 5.16327 10.6443ZM10.8448 19.1135C10.7251 19.1135 10.6114 19.0941 10.5038 19.0553C10.3961 19.0166 10.2961 18.9508 10.2038 18.8578L6.70953 15.3635C6.56086 15.2147 6.48752 15.0423 6.48952 14.8463C6.49136 14.6501 6.56986 14.4738 6.72502 14.3173C6.88019 14.1738 7.05586 14.0994 7.25203 14.0943C7.44819 14.0891 7.62378 14.1641 7.77878 14.3193L10.0865 16.627V10.0865C10.0865 9.87685 10.1584 9.70101 10.3023 9.55901C10.4461 9.41718 10.6243 9.34626 10.8368 9.34626C11.0494 9.34626 11.2276 9.4181 11.3713 9.56176C11.5148 9.7056 11.5865 9.88376 11.5865 10.0963V16.627L13.9038 14.3095C14.0391 14.1712 14.2082 14.102 14.411 14.102C14.6139 14.102 14.7929 14.1738 14.948 14.3173C15.1032 14.4738 15.1808 14.6526 15.1808 14.8538C15.1808 15.0551 15.1032 15.2333 14.948 15.3885L11.4788 18.8578C11.3853 18.9513 11.2862 19.0173 11.1815 19.0558C11.0767 19.0943 10.9644 19.1135 10.8448 19.1135Z" fill="#1D4ED8"/>
</svg>
