<svg width="21" height="19" viewBox="0 0 21 19" fill="none" xmlns="http://www.w3.org/2000/svg">
<path d="M18.6923 6.49999C19.1679 6.49999 19.5881 6.6824 19.9527 7.04724C20.3176 7.4119 20.5 7.83207 20.5 8.30774V9.92299C20.5 10.028 20.4865 10.1405 20.4595 10.2605C20.4327 10.3803 20.4026 10.4922 20.3693 10.5962L17.5033 17.3587C17.3601 17.6786 17.1199 17.9487 16.7828 18.1692C16.4456 18.3897 16.0938 18.5 15.7273 18.5H5.2115V6.49999L11.0288 0.732737C11.2276 0.534071 11.4578 0.415488 11.7193 0.376988C11.9808 0.338488 12.2313 0.383321 12.471 0.511488C12.7108 0.639821 12.8865 0.821904 12.998 1.05774C13.1095 1.29357 13.1333 1.53782 13.0693 1.79049L11.9923 6.49999H18.6923ZM6.7115 7.13849V17H15.7308C15.8013 17 15.8733 16.9807 15.947 16.9422C16.0208 16.9037 16.077 16.8397 16.1155 16.75L19 9.99999V8.30774C19 8.2179 18.9712 8.14415 18.9135 8.08649C18.8558 8.02882 18.7821 7.99999 18.6923 7.99999H10.0963L11.35 2.51924L6.7115 7.13849ZM2.30775 18.5C1.81058 18.5 1.385 18.323 1.031 17.969C0.677 17.615 0.5 17.1894 0.5 16.6922V8.30774C0.5 7.81057 0.677 7.38499 1.031 7.03099C1.385 6.67699 1.81058 6.49999 2.30775 6.49999H5.2115V7.99999H2.30775C2.21792 7.99999 2.14417 8.02882 2.0865 8.08649C2.02883 8.14415 2 8.2179 2 8.30774V16.6922C2 16.7821 2.02883 16.8558 2.0865 16.9135C2.14417 16.9712 2.21792 17 2.30775 17H5.2115V18.5H2.30775Z" fill="#18181B"/>
</svg>
