<svg width="20" height="21" viewBox="0 0 20 21" fill="none" xmlns="http://www.w3.org/2000/svg">
<path d="M19 5.75C17.8069 5.74876 16.663 5.27425 15.8194 4.43061C14.9757 3.58697 14.5012 2.44309 14.5 1.25C14.5 1.05109 14.421 0.860322 14.2803 0.71967C14.1397 0.579018 13.9489 0.5 13.75 0.5H10C9.80109 0.5 9.61032 0.579018 9.46967 0.71967C9.32902 0.860322 9.25 1.05109 9.25 1.25V13.625C9.24985 13.9605 9.15967 14.2898 8.98887 14.5786C8.81807 14.8674 8.57291 15.1051 8.27896 15.2668C7.98501 15.4286 7.65304 15.5085 7.31768 15.4983C6.98232 15.488 6.65586 15.388 6.37234 15.2085C6.08883 15.0291 5.85865 14.7769 5.70582 14.4782C5.55299 14.1795 5.4831 13.8453 5.50345 13.5104C5.5238 13.1755 5.63364 12.8522 5.82151 12.5742C6.00939 12.2962 6.26841 12.0738 6.57156 11.93C6.6998 11.8691 6.80813 11.7731 6.88397 11.6532C6.95981 11.5332 7.00005 11.3941 7 11.2522V7.25C7.00005 7.14037 6.97606 7.03206 6.92972 6.9327C6.88339 6.83334 6.81584 6.74535 6.73182 6.67492C6.6478 6.60449 6.54937 6.55333 6.44345 6.52505C6.33752 6.49678 6.22669 6.49206 6.11875 6.51125C2.77281 7.1075 0.25 10.1656 0.25 13.625C0.25 15.5147 1.00067 17.3269 2.33686 18.6631C3.67306 19.9993 5.48533 20.75 7.375 20.75C9.26467 20.75 11.0769 19.9993 12.4131 18.6631C13.7493 17.3269 14.5 15.5147 14.5 13.625V9.90219C15.889 10.6269 17.4333 11.0036 19 11C19.1989 11 19.3897 10.921 19.5303 10.7803C19.671 10.6397 19.75 10.4489 19.75 10.25V6.5C19.75 6.30109 19.671 6.11032 19.5303 5.96967C19.3897 5.82902 19.1989 5.75 19 5.75ZM18.25 9.46625C16.7843 9.33637 15.3809 8.81329 14.1878 7.95219C14.0757 7.87156 13.9434 7.82347 13.8057 7.81321C13.668 7.80295 13.5301 7.83092 13.4072 7.89404C13.2844 7.95716 13.1814 8.05298 13.1095 8.17093C13.0376 8.28888 12.9997 8.42438 13 8.5625V13.625C13 15.1168 12.4074 16.5476 11.3525 17.6025C10.2976 18.6574 8.86684 19.25 7.375 19.25C5.88316 19.25 4.45242 18.6574 3.39752 17.6025C2.34263 16.5476 1.75 15.1168 1.75 13.625C1.75 11.1969 3.31 9.01906 5.5 8.225V10.8191C5.01517 11.143 4.62254 11.587 4.36037 12.1079C4.09821 12.6287 3.97545 13.2086 4.00407 13.7909C4.03268 14.3733 4.2117 14.9384 4.52366 15.431C4.83562 15.9236 5.26989 16.327 5.78414 16.6018C6.29839 16.8767 6.87508 17.0136 7.458 16.9993C8.04091 16.9849 8.61017 16.8198 9.11028 16.52C9.6104 16.2202 10.0243 15.796 10.3117 15.2886C10.599 14.7812 10.7501 14.2081 10.75 13.625V2H13.0469C13.2155 3.32101 13.818 4.54866 14.7597 5.49034C15.7013 6.43203 16.929 7.03446 18.25 7.20312V9.46625Z" fill="#52525B"/>
</svg>
