<svg width="20" height="12" viewBox="0 0 20 12" fill="none" xmlns="http://www.w3.org/2000/svg">
<path d="M1.02704 11.2595C0.871873 11.1045 0.798456 10.9263 0.806789 10.725C0.815123 10.5237 0.88854 10.3538 1.02704 10.2155L6.07129 5.10575C6.41612 4.75441 6.84304 4.57875 7.35204 4.57875C7.86087 4.57875 8.29096 4.75441 8.64229 5.10575L11.1403 7.61925C11.1981 7.67692 11.2687 7.70575 11.352 7.70575C11.4354 7.70575 11.509 7.67692 11.573 7.61925L16.9655 2.2865H14.75C14.5372 2.2865 14.359 2.21475 14.2155 2.07125C14.0719 1.92758 14 1.74933 14 1.5365C14 1.32367 14.0719 1.1455 14.2155 1.002C14.359 0.858332 14.5372 0.786499 14.75 0.786499H18.596C18.8539 0.786499 19.069 0.872748 19.2413 1.04525C19.4138 1.21775 19.5 1.43283 19.5 1.6905V5.5365C19.5 5.74933 19.4282 5.92758 19.2845 6.07125C19.141 6.21475 18.9629 6.2865 18.75 6.2865C18.5372 6.2865 18.359 6.21633 18.2155 6.076C18.0719 5.93567 18 5.75908 18 5.54625V3.34025L12.6328 8.70775C12.2878 9.05258 11.8609 9.225 11.352 9.225C10.843 9.225 10.4161 9.05258 10.0713 8.70775L7.57304 6.2095C7.51537 6.15183 7.44171 6.123 7.35204 6.123C7.26221 6.123 7.18846 6.15183 7.13079 6.2095L2.08079 11.2595C1.93596 11.4045 1.76029 11.477 1.55379 11.477C1.34746 11.477 1.17187 11.4045 1.02704 11.2595Z" fill="#52525B"/>
</svg>
