<svg width="20" height="24" viewBox="0 0 20 24" fill="none" xmlns="http://www.w3.org/2000/svg">
<path d="M9.95334 0C12.6096 4.69141e-05 15.2716 1.08378 17.261 3.25098C21.0701 7.39141 20.851 13.9906 16.9485 18.04L11.676 23.5107C11.05 24.163 10.0325 24.163 9.40353 23.5107C8.81257 22.8945 8.81257 21.8983 9.40353 21.2852L14.8156 15.6729C17.5013 12.8832 17.6537 8.3324 15.0178 5.49414C13.6546 4.02805 11.8433 3.29403 10.0295 3.29395C8.25663 3.29395 6.48367 3.99506 5.13205 5.39746L2.70627 7.91406C2.11237 8.52702 1.15264 8.52713 0.561737 7.91406L0.456268 7.80469C-0.152144 7.17033 -0.152032 6.1441 0.456268 5.5127L2.81174 3.06934C4.7836 1.02336 7.36998 0 9.95334 0ZM9.95041 5.96484C11.0884 5.96488 12.2261 6.4177 13.092 7.32227C14.8239 9.13452 14.7273 12.0973 12.9865 13.9004L3.87717 23.3525C3.24818 24.0052 2.22688 24.0052 1.59787 23.3525C1.26142 23.0035 1.09103 22.5481 1.09103 22.0928C1.09107 21.6345 1.26146 21.176 1.59787 20.8301L4.21017 18.1191L10.761 11.3232C11.2114 10.8559 11.2756 10.0907 10.8576 9.58984C10.6178 9.30451 10.2839 9.16117 9.95041 9.16113C9.64619 9.16113 9.33879 9.28268 9.10471 9.52539L4.94455 13.8418L6.63889 15.5967L6.63693 15.5986L6.63791 15.5996L4.21017 18.1191L2.42502 16.2705L2.42599 16.2686L1.76779 15.585C0.960324 14.7502 0.960324 13.3925 1.76779 12.5547L2.73557 11.5508L6.82248 7.30957C7.68551 6.41407 8.81817 5.96484 9.95041 5.96484Z" fill="white"/>
</svg>
