<svg width="17" height="18" viewBox="0 0 17 18" fill="none" xmlns="http://www.w3.org/2000/svg">
<path d="M1.80775 7.80774C1.30258 7.80774 0.875 7.63274 0.525 7.28274C0.175 6.93274 0 6.50516 0 5.99999V2.61549C0 2.11032 0.175 1.68274 0.525 1.33274C0.875 0.982739 1.30258 0.807739 1.80775 0.807739H15.1923C15.6974 0.807739 16.125 0.982739 16.475 1.33274C16.825 1.68274 17 2.11032 17 2.61549V5.99999C17 6.50516 16.825 6.93274 16.475 7.28274C16.125 7.63274 15.6974 7.80774 15.1923 7.80774H1.80775ZM1.80775 6.30774H15.1923C15.2692 6.30774 15.3398 6.27566 15.4038 6.21149C15.4679 6.14749 15.5 6.07699 15.5 5.99999V2.61549C15.5 2.53849 15.4679 2.46799 15.4038 2.40399C15.3398 2.33982 15.2692 2.30774 15.1923 2.30774H1.80775C1.73075 2.30774 1.66025 2.33982 1.59625 2.40399C1.53208 2.46799 1.5 2.53849 1.5 2.61549V5.99999C1.5 6.07699 1.53208 6.14749 1.59625 6.21149C1.66025 6.27566 1.73075 6.30774 1.80775 6.30774ZM1.80775 17.1922C1.30258 17.1922 0.875 17.0172 0.525 16.6672C0.175 16.3172 0 15.8897 0 15.3845V12C0 11.4948 0.175 11.0672 0.525 10.7172C0.875 10.3672 1.30258 10.1922 1.80775 10.1922H15.1923C15.6974 10.1922 16.125 10.3672 16.475 10.7172C16.825 11.0672 17 11.4948 17 12V15.3845C17 15.8897 16.825 16.3172 16.475 16.6672C16.125 17.0172 15.6974 17.1922 15.1923 17.1922H1.80775ZM1.80775 15.6922H15.1923C15.2692 15.6922 15.3398 15.6602 15.4038 15.596C15.4679 15.532 15.5 15.4615 15.5 15.3845V12C15.5 11.923 15.4679 11.8525 15.4038 11.7885C15.3398 11.7243 15.2692 11.6922 15.1923 11.6922H1.80775C1.73075 11.6922 1.66025 11.7243 1.59625 11.7885C1.53208 11.8525 1.5 11.923 1.5 12V15.3845C1.5 15.4615 1.53208 15.532 1.59625 15.596C1.66025 15.6602 1.73075 15.6922 1.80775 15.6922Z" fill="#1D4ED8"/>
</svg>
