<svg width="22" height="18" viewBox="0 0 22 18" fill="none" xmlns="http://www.w3.org/2000/svg">
<path d="M14.4163 8.37563L9.91625 5.37563C9.80327 5.30025 9.67195 5.25697 9.53629 5.2504C9.40064 5.24382 9.26575 5.27421 9.14601 5.33831C9.02628 5.40241 8.9262 5.49783 8.85645 5.61436C8.7867 5.7309 8.74991 5.86419 8.75 6V12C8.74991 12.1358 8.7867 12.2691 8.85645 12.3856C8.9262 12.5022 9.02628 12.5976 9.14601 12.6617C9.26575 12.7258 9.40064 12.7562 9.53629 12.7496C9.67195 12.743 9.80327 12.6998 9.91625 12.6244L14.4163 9.62438C14.5191 9.55592 14.6035 9.46309 14.6618 9.35417C14.7202 9.24524 14.7507 9.12358 14.7507 9C14.7507 8.87643 14.7202 8.75477 14.6618 8.64584C14.6035 8.53691 14.5191 8.44409 14.4163 8.37563ZM10.25 10.5984V7.40625L12.6481 9L10.25 10.5984ZM20.9684 3.5175C20.8801 3.17189 20.7109 2.85224 20.4747 2.58491C20.2385 2.31758 19.9421 2.11024 19.61 1.98C16.3962 0.738753 11.2812 0.750004 11 0.750004C10.7188 0.750004 5.60375 0.738753 2.39 1.98C2.0579 2.11024 1.76153 2.31758 1.52534 2.58491C1.28915 2.85224 1.1199 3.17189 1.03156 3.5175C0.78875 4.45313 0.5 6.16313 0.5 9C0.5 11.8369 0.78875 13.5469 1.03156 14.4825C1.11977 14.8283 1.28895 15.1481 1.52515 15.4156C1.76136 15.6831 2.0578 15.8906 2.39 16.0209C5.46875 17.2088 10.2875 17.25 10.9381 17.25H11.0619C11.7125 17.25 16.5341 17.2088 19.61 16.0209C19.9422 15.8906 20.2386 15.6831 20.4748 15.4156C20.711 15.1481 20.8802 14.8283 20.9684 14.4825C21.2113 13.545 21.5 11.8369 21.5 9C21.5 6.16313 21.2113 4.45313 20.9684 3.5175ZM19.5163 14.1113C19.4877 14.2263 19.4323 14.3329 19.3545 14.4224C19.2768 14.5118 19.179 14.5816 19.0691 14.6259C16.1019 15.7716 11.0553 15.7509 11.0066 15.7509H11C10.9494 15.7509 5.90656 15.7697 2.9375 14.6259C2.8276 14.5816 2.72977 14.5118 2.65204 14.4224C2.57431 14.3329 2.51888 14.2263 2.49031 14.1113C2.2625 13.2553 2 11.6784 2 9C2 6.32157 2.2625 4.74469 2.48375 3.89344C2.51179 3.77774 2.56697 3.67037 2.64473 3.58022C2.7225 3.49007 2.8206 3.41972 2.93094 3.375C5.79219 2.26969 10.5866 2.25 10.9794 2.25H11.0047C11.0553 2.25 16.1028 2.23313 19.0672 3.375C19.1771 3.41936 19.2749 3.48913 19.3526 3.57859C19.4304 3.66806 19.4858 3.77467 19.5144 3.88969C19.7375 4.74469 20 6.32157 20 9C20 11.6784 19.7375 13.2553 19.5163 14.1066V14.1113Z" fill="#52525B"/>
</svg>
